<svg width="24" height="24" fill="#730394" viewBox="0 0 20 20" xmlns="http://www.w3.org/2000/svg"><path d="m13.1413 10.4214-2.4057 1.2003c-.7228.3612-1.30734.9455-1.66873 1.6678l-1.20106 2.4043c-.17006.3435-.66253.3435-.83259 0l-1.20107-2.4043c-.36138-.7223-.94597-1.3066-1.66873-1.6678l-2.40567-1.2003c-.34367-.17-.34367-.66218 0-.83215l2.40567-1.20037c.72276-.36118 1.30735-.94543 1.66873-1.66778l1.20107-2.40429c.17006-.34347.66253-.34347.83259 0l1.20106 2.40429c.36139.72235.94593 1.3066 1.66873 1.66778l2.4057 1.20037c.3436.16997.3436.66215 0 .83215zm5.2471 5.3468-1.031-.517c-.3118-.1523-.5598-.4072-.7157-.7153l-.5173-1.0304c-.0708-.1487-.2834-.1487-.3578 0l-.5173 1.0304c-.1523.3116-.4074.5595-.7156.7153l-1.031.517c-.1488.0708-.1488.2832 0 .3576l1.031.517c.3117.1522.5597.4072.7156.7153l.5173 1.0304c.0709.1487.2834.1487.3578 0l.5173-1.0304c.1524-.3117.4075-.5595.7157-.7153l1.031-.517c.1488-.0708.1488-.2833 0-.3576zm0-11.89401-1.031-.51697c-.3118-.15226-.5598-.40721-.7157-.71527l-.5173-1.03041c-.0708-.14872-.2834-.14872-.3578 0l-.5173 1.03041c-.1523.3116-.4074.55947-.7156.71527l-1.031.51697c-.1488.07082-.1488.28328 0 .35764l1.031.51697c.3117.15226.5597.40721.7156.71527l.5173 1.03041c.0709.14872.2834.14872.3578 0l.5173-1.03041c.1524-.3116.4075-.55947.7157-.71527l1.031-.51697c.1488-.07082.1488-.28328 0-.35764z"></path></svg>